<svg xmlns="http://www.w3.org/2000/svg" viewBox="0 0 260 144"><path d="M66.9 22.6c0-7.5 6-13.5 13.5-13.5h9c7.5 0 13.5 6 13.5 13.5h37.2c2.5-4.3 8-5.8 12.3-3.3 4.3 2.5 5.8 8 3.3 12.3s-8 5.8-12.3 3.3c-1.4-.8-2.5-1.9-3.3-3.3H122c1.6 1.6 3.1 3.4 4.4 5.4 5.7 8.9 8 21.2 8 35.1 0 18 2.3 27.9 6.4 33.3 3.2 4.3 8.1 6.5 16.1 7.1.1-7.4 6.1-13.4 13.5-13.4h9c7.5 0 13.5 6 13.5 13.5v9c0 7.5-6 13.5-13.5 13.5h-9c-7.5 0-13.5-6-13.5-13.5h-37.2c-2.5 4.3-8 5.8-12.3 3.3-4.3-2.5-5.8-8-3.3-12.3s8-5.8 12.3-3.3c1.4.8 2.5 1.9 3.3 3.3h15.4l-1.5-1.8c-6-8-8.2-20.7-8.2-38.7 0-13.2-2.2-23.4-6.6-30.2-3.5-5.4-8.6-9-15.9-10-.2 7.3-6.2 13.2-13.5 13.2h-9c-7.5 0-13.5-6-13.5-13.5v-9zm13.6-4.5c-2.5 0-4.5 2-4.5 4.5v9c0 2.5 2 4.5 4.5 4.5h9c2.5 0 4.5-2 4.5-4.5v-9c0-2.5-2-4.5-4.5-4.5h-9zm90 90c-2.5 0-4.5 2-4.5 4.5v9c0 2.5 2 4.5 4.5 4.5h9c2.5 0 4.5-2 4.5-4.5v-9c0-2.5-2-4.5-4.5-4.5h-9z" fill-rule="evenodd" clip-rule="evenodd" fill="#96e022"/></svg>