<svg version="1.1" id="Capa_1" xmlns="http://www.w3.org/2000/svg" x="0" y="0" viewBox="0 0 260 144" xml:space="preserve"><style>.st0{fill:#96e022}</style><path class="st0" d="M223.5 64.3H197c-4.9 0-8.8 4-8.8 8.8v53.1c0 4.9 4 8.8 8.8 8.8h26.5c4.9 0 8.8-4 8.8-8.8v-53c0-4.9-3.9-8.9-8.8-8.9zm4.4 62c0 2.4-2 4.4-4.4 4.4H197c-2.4 0-4.4-2-4.4-4.4V73.2c0-2.4 2-4.4 4.4-4.4h26.5c2.4 0 4.4 2 4.4 4.4v53.1z"/><circle class="st0" cx="210.2" cy="121.8" r="4.4"/><path class="st0" d="M42.1 20.1c-1.5 0-2.8 1.2-2.8 2.8 0 1.5 1.2 2.8 2.8 2.8 1.5 0 2.8-1.2 2.8-2.8 0-1.5-1.3-2.8-2.8-2.8z"/><circle class="st0" cx="50.4" cy="22.9" r="2.8"/><circle class="st0" cx="58.7" cy="22.9" r="2.8"/><path class="st0" d="M165.6 28h-48.7V11.8c0-1.5-1.2-2.8-2.8-2.8H31c-1.5 0-2.8 1.2-2.8 2.8v72c0 1.5 1.2 2.8 2.8 2.8h14.5v9.9c0 17.1 17.1 17.1 17.1 17.1H97c0 5.7-.7 10-2.1 12.9h-6.4c-2.4 0-4.3 1.9-4.3 4.3s1.9 4.3 4.3 4.3h51.4c2.4 0 4.3-1.9 4.3-4.3s-1.9-4.3-4.3-4.3h-6.4c-1.4-2.9-2.1-7.1-2.1-12.9h34.3c17.1 0 17.1-17.1 17.1-17.1V45.1C182.7 28 165.6 28 165.6 28zM33.8 14.6h77.5v16.6H33.8V14.6zm0 22.2h77.5v44.3H33.8V36.8zm140.3 59.7v.2c-.1 1.6-.5 3.2-1.2 4.6-.5 1-1.2 1.9-2.2 2.6-.9.6-2.4 1.2-5.2 1.2H62.6c-1.6-.1-3.2-.5-4.6-1.2-1.1-.6-2-1.3-2.6-2.2-.6-.9-1.2-2.4-1.2-5.2v-9.9h60c1.5 0 2.8-1.2 2.8-2.8V36.6h48.6c1.7.1 3.3.5 4.8 1.2 1 .5 1.9 1.2 2.6 2.2.6.9 1.2 2.4 1.2 5.2v51.3z"/><path class="st0" d="M42.1 43.2h61.5v28.6H42.1zm154.3 31.7H224v39h-27.6z"/></svg>