<svg version="1.1" id="Capa_1" xmlns="http://www.w3.org/2000/svg" x="0" y="0" viewBox="0 0 260 144" xml:space="preserve"><style>.st0{fill:#96e022}</style><path class="st0" d="M187.6 19.6c2.9 0 5.2 2.3 5.2 5.2v78.6H67.1V24.8c0-2.9 2.3-5.2 5.2-5.2h115.3zM72.3 9.1c-8.7 0-15.7 7-15.7 15.7v89.1h146.7V24.8c0-8.7-7-15.7-15.7-15.7H72.3zM46.1 119.2h167.7c0 8.7-7 15.7-15.7 15.7H61.9c-8.7 0-15.8-7-15.8-15.7z"/><path class="st0" d="M84.2 53.1v13.6c0 1.4.3 2.4 1 3.1.7.7 1.7 1.1 2.9 1.1 1.3 0 2.3-.4 3-1.1.7-.7 1-1.8 1-3.1V53.1h5.5v13.6c0 2-.4 3.7-1.3 5.1-.9 1.4-2 2.5-3.5 3.2-1.4.6-3 1-4.8 1-1.8 0-3.4-.4-4.8-1.1-1.4-.7-2.5-1.8-3.3-3.2-.8-1.4-1.2-3.1-1.2-5.2V53.1h5.5zm31.2 22.7l-4.6-7-4.1 7h-6.3l7.3-11.6-7.4-11.2h6.4l4.6 6.9 4-6.9h6.3l-7.2 11.5 7.5 11.3h-6.5zM143.8 45l-8.7 36.8h-5.3l8.7-36.8h5.3zm14.7 8.1v13.6c0 1.4.3 2.4 1 3.1.7.7 1.6 1.1 2.9 1.1 1.3 0 2.3-.4 3-1.1.7-.7 1-1.8 1-3.1V53.1h5.5v13.6c0 2-.4 3.7-1.3 5.1-.9 1.4-2 2.5-3.5 3.2-1.5.7-3.1 1.1-4.9 1.1-1.8 0-3.4-.4-4.8-1.1-1.4-.7-2.5-1.8-3.3-3.2-.8-1.4-1.2-3.1-1.2-5.2V53.1h5.6zm22.9 0v22.7h-5.5V53.1h5.5z"/></svg>