<?xml version="1.0" encoding="utf-8"?>
<!-- Generator: Adobe Illustrator 23.0.1, SVG Export Plug-In . SVG Version: 6.00 Build 0)  -->
<svg version="1.1" id="Capa_1" xmlns="http://www.w3.org/2000/svg" xmlns:xlink="http://www.w3.org/1999/xlink" x="0px" y="0px"
	 viewBox="0 0 260 144" style="enable-background:new 0 0 260 144;" xml:space="preserve">
<style type="text/css">
	.st0{fill:#96E022;}
</style>
<path class="st0" d="M187.6,19.6c2.9,0,5.2,2.3,5.2,5.2v78.6H67.1V24.8c0-2.9,2.3-5.2,5.2-5.2C72.3,19.6,187.6,19.6,187.6,19.6z
	 M72.3,9.1c-8.7,0-15.7,7-15.7,15.7v89.1h146.7V24.8c0-8.7-7-15.7-15.7-15.7C187.6,9.1,72.3,9.1,72.3,9.1z M46.1,119.2h167.7
	c0,8.7-7,15.7-15.7,15.7H61.9C53.2,134.9,46.1,127.9,46.1,119.2z"/>
</svg>
